<svg width="23" height="22" viewBox="0 0 23 22" fill="none" xmlns="http://www.w3.org/2000/svg">
<path d="M5.21545 7.34082H0.275391V21.8217H5.21545V7.34082Z" fill="#393939"/>
<path d="M21.4372 8.66319C20.4033 7.5648 19.0246 7.00439 17.3243 7.00439C16.704 7.00439 16.1295 7.07164 15.6011 7.22856C15.0956 7.38547 14.659 7.58722 14.2914 7.85621C13.9467 8.1252 13.648 8.37178 13.4412 8.61836C13.2344 8.84252 13.0506 9.0891 12.8668 9.38051V7.31822H7.94971L7.97268 8.01312C7.97268 8.48386 7.99566 9.9185 7.99566 12.3394C7.99566 14.7604 7.99566 17.8987 7.97268 21.7991H12.8898V13.7292C12.8898 13.2361 12.9357 12.8326 13.0506 12.5412C13.2574 12.048 13.5791 11.6221 13.9927 11.2859C14.4063 10.9496 14.9347 10.7927 15.5781 10.7927C16.4282 10.7927 17.0716 11.0841 17.4622 11.667C17.8758 12.2498 18.0596 13.0568 18.0596 14.0655V21.7991H22.9767V13.5051C22.9997 11.3755 22.4942 9.76158 21.4372 8.66319Z" fill="#393939"/>
<path d="M2.77973 0.369385C1.95256 0.369385 1.28623 0.615963 0.780731 1.0867C0.252259 1.55744 -0.000488281 2.14026 -0.000488281 2.85758C-0.000488281 3.5749 0.252259 4.15772 0.757753 4.65088C1.26325 5.12161 1.9066 5.36819 2.73378 5.36819H2.75675C3.6069 5.36819 4.27324 5.12161 4.77873 4.65088C5.28423 4.18014 5.53697 3.5749 5.53697 2.85758C5.53697 2.14026 5.26125 1.53503 4.77873 1.06429C4.27324 0.615963 3.6069 0.369385 2.77973 0.369385Z" fill="#393939"/>
</svg>
