<svg width="18" height="19" viewBox="0 0 18 19" fill="none" xmlns="http://www.w3.org/2000/svg">
<path d="M13.1038 1.71026C13.3158 1.48508 13.5674 1.30646 13.8443 1.18459C14.1212 1.06272 14.418 1 14.7177 1C15.0174 1 15.3142 1.06272 15.5911 1.18459C15.868 1.30646 16.1196 1.48508 16.3315 1.71026C16.5435 1.93544 16.7116 2.20276 16.8263 2.49697C16.941 2.79118 17 3.10651 17 3.42497C17 3.74342 16.941 4.05875 16.8263 4.35296C16.7116 4.64717 16.5435 4.9145 16.3315 5.13968L5.43807 16.714L1 18L2.21038 13.2845L13.1038 1.71026Z" stroke="#393939" stroke-width="2" stroke-linecap="round" stroke-linejoin="round"/>
</svg>
