<svg width="32" height="32" viewBox="0 0 32 32" fill="none" xmlns="http://www.w3.org/2000/svg">
<path d="M29 12.88C29.8107 12.88 30.472 13.1573 30.984 13.712C31.5387 14.224 31.816 14.8853 31.816 15.696C31.816 16.5067 31.5387 17.1893 30.984 17.744C30.472 18.256 29.8107 18.512 29 18.512H19.016V28.432C19.016 29.2427 18.7387 29.9253 18.184 30.48C17.672 31.0347 17.0107 31.312 16.2 31.312C15.3893 31.312 14.7067 31.0347 14.152 30.48C13.64 29.9253 13.384 29.2427 13.384 28.432V18.512H3.4C2.58933 18.512 1.90667 18.256 1.352 17.744C0.84 17.1893 0.584 16.5067 0.584 15.696C0.584 14.8853 0.84 14.224 1.352 13.712C1.90667 13.1573 2.58933 12.88 3.4 12.88H13.384V2.896C13.384 2.08533 13.64 1.424 14.152 0.911999C14.7067 0.357332 15.3893 0.079998 16.2 0.079998C17.0107 0.079998 17.672 0.357332 18.184 0.911999C18.7387 1.424 19.016 2.08533 19.016 2.896V12.88H29Z" fill="#B8BECD"/>
</svg>
