<svg width="32" height="32" viewBox="0 0 32 32" fill="none" xmlns="http://www.w3.org/2000/svg">
<path d="M19.8172 30.9478L19.8218 20.6481C19.8782 20.2549 20.1974 19.8995 20.6103 19.825L30.9316 19.8365C31.3257 19.8931 31.6448 19.5376 31.7201 19.0134L31.7415 13.2643C31.7979 12.8711 31.4415 12.5524 30.9161 12.4769L20.5947 12.4654C20.2007 12.4088 19.8443 12.0901 19.7694 11.678L19.7739 1.37834C19.8304 0.985147 19.474 0.666396 18.9485 0.590906L13.1874 0.565797C12.7933 0.509179 12.4741 0.864628 12.3988 1.38889L12.3943 11.6886C12.3379 12.0817 12.0187 12.4372 11.6058 12.5116L1.28443 12.5002C0.890369 12.4436 0.571189 12.799 0.495893 13.3233L0.474558 19.0724C0.418086 19.4656 0.774517 19.7843 1.29994 19.8598L11.6213 19.8712C12.0154 19.9279 12.3718 20.2466 12.4467 20.6587L12.4421 30.9583C12.3856 31.3515 12.7421 31.6703 13.2675 31.7458L19.0287 31.7709C19.4415 31.6964 19.7607 31.341 19.8172 30.9478Z" fill="#FDD08D"/>
</svg>
