<svg width="25" height="20" viewBox="0 0 25 20" fill="none" xmlns="http://www.w3.org/2000/svg">
<path d="M24.9985 2.63457C24.0248 3.0321 23.0267 3.28932 22.053 3.40624C23.1728 2.77488 23.903 1.86291 24.3169 0.693721C23.2945 1.25493 22.1991 1.65246 21.0549 1.86291C20.0325 0.834023 18.7911 0.31958 17.3062 0.31958C15.8943 0.31958 14.6771 0.81064 13.6791 1.76937C12.681 2.72811 12.1698 3.8973 12.1698 5.25356C12.1698 5.6277 12.2185 6.00184 12.2916 6.37598C10.1981 6.28244 8.22631 5.768 6.40061 4.85603C4.5749 3.94407 3.01696 2.72811 1.7268 1.23155C1.26429 2.00321 1.02086 2.82164 1.02086 3.71023C1.02086 4.55204 1.2156 5.34709 1.62943 6.04861C2.04325 6.7735 2.60314 7.3581 3.28474 7.80239C2.45708 7.77901 1.67811 7.56855 0.972174 7.17103V7.24118C0.972174 8.43375 1.36166 9.46264 2.14063 10.3746C2.91959 11.2632 3.8933 11.8478 5.0861 12.0816C4.64793 12.1985 4.18542 12.2453 3.74725 12.2453C3.45513 12.2453 3.13868 12.2219 2.77354 12.1752C3.08999 13.1573 3.69856 13.9757 4.5749 14.6071C5.45124 15.2384 6.44929 15.5658 7.56906 15.5892C5.71901 16.9922 3.57685 17.6937 1.2156 17.6937C0.753089 17.6937 0.339262 17.6703 -0.0258789 17.6236C2.35971 19.0968 4.98873 19.8217 7.83683 19.8217C9.66254 19.8217 11.3665 19.541 12.9731 19.0032C14.5798 18.442 15.943 17.7171 17.0627 16.7818C18.1825 15.8464 19.1805 14.7708 19.9839 13.5782C20.8115 12.3622 21.4201 11.0995 21.8096 9.79001C22.1991 8.48052 22.4181 7.14764 22.4181 5.83815C22.4181 5.55755 22.4181 5.34709 22.3938 5.20679C23.4405 4.48189 24.2925 3.64008 24.9985 2.63457Z" fill="#393939"/>
</svg>
