<svg width="29" height="20" viewBox="0 0 29 20" fill="none" xmlns="http://www.w3.org/2000/svg">
<path d="M27.9851 7.77901C27.9851 7.24118 27.9372 6.53967 27.8412 5.69785C27.7693 4.85603 27.6494 4.10775 27.5055 3.45301C27.3376 2.70473 26.9779 2.09675 26.4264 1.5823C25.8748 1.06786 25.2273 0.787256 24.4839 0.693721C22.1818 0.436499 18.6806 0.31958 14.0043 0.31958C9.32805 0.31958 5.82685 0.436499 3.52469 0.693721C2.78129 0.787256 2.1338 1.06786 1.58225 1.5823C1.03069 2.09675 0.670974 2.70473 0.503109 3.45301C0.335243 4.10775 0.23932 4.85603 0.143397 5.69785C0.0714542 6.53967 0.0234925 7.24118 -0.000488281 7.77901C-0.000488281 8.34022 -0.000488281 9.0885 -0.000488281 10.0706C-0.000488281 11.0527 -0.000488281 11.801 0.0234925 12.3622C0.0234925 12.9001 0.0714542 13.6016 0.167377 14.4434C0.215339 15.2852 0.335243 16.0335 0.479128 16.6882C0.646994 17.4365 1.00671 18.0445 1.55826 18.5589C2.10982 19.0734 2.75731 19.354 3.50071 19.4475C5.80287 19.7047 9.30407 19.8217 13.9803 19.8217C18.6566 19.8217 22.1578 19.7047 24.4599 19.4475C25.2033 19.3774 25.8508 19.0734 26.4024 18.5589C26.9539 18.0445 27.3137 17.4365 27.4815 16.6882C27.6494 16.0335 27.7453 15.2852 27.8412 14.4434C27.9132 13.6016 27.9611 12.9001 27.9851 12.3622C27.9851 11.8244 28.0091 11.0527 28.0091 10.0706C28.0091 9.0885 28.0091 8.34022 27.9851 7.77901ZM19.5439 10.889L11.5343 15.7763C11.3904 15.8698 11.2225 15.9399 11.0067 15.9399C10.8388 15.9399 10.695 15.8932 10.5271 15.823C10.1914 15.636 9.99951 15.3554 9.99951 14.9578V5.20679C9.99951 4.80927 10.1674 4.52866 10.5271 4.34159C10.8868 4.15452 11.2225 4.1779 11.5343 4.36497L15.5391 6.80858L19.5439 9.25218C19.8556 9.41587 20.0235 9.69648 20.0235 10.0706C19.9995 10.4448 19.8556 10.7254 19.5439 10.889Z" fill="#393939"/>
</svg>
